<?xml version="1.0" encoding="utf-8"?>
<!-- Generator: Adobe Illustrator 16.0.0, SVG Export Plug-In . SVG Version: 6.00 Build 0)  -->
<!DOCTYPE svg PUBLIC "-//W3C//DTD SVG 1.1//EN" "http://www.w3.org/Graphics/SVG/1.1/DTD/svg11.dtd">
<svg version="1.1" id="Layer_1" xmlns="http://www.w3.org/2000/svg" xmlns:xlink="http://www.w3.org/1999/xlink" x="0px" y="0px"
	 width="173.211px" height="28.438px" viewBox="41.212 36.891 173.211 28.438"
	 enable-background="new 41.212 36.891 173.211 28.438" xml:space="preserve">
<g enable-background="new    ">
	<path d="M43.528,64.632h-2.316V44.639h2.316v3.011h0.077c0.591-1.158,1.44-2.039,2.547-2.644c1.106-0.604,2.316-0.907,3.628-0.907
		c0.926,0,1.711,0.103,2.354,0.309c0.643,0.206,1.19,0.482,1.64,0.83c0.45,0.347,0.823,0.752,1.12,1.216
		c0.295,0.463,0.546,0.965,0.752,1.505c0.669-1.312,1.563-2.283,2.683-2.914c1.119-0.63,2.399-0.945,3.84-0.945
		c1.363,0,2.451,0.226,3.261,0.675c0.811,0.451,1.434,1.043,1.872,1.775c0.438,0.733,0.727,1.577,0.869,2.528
		c0.141,0.952,0.212,1.93,0.212,2.934v12.621h-2.315V50.814c0-1.441-0.303-2.573-0.907-3.396c-0.605-0.823-1.731-1.235-3.377-1.235
		c-0.849,0-1.666,0.187-2.451,0.56s-1.473,0.945-2.065,1.718c-0.257,0.335-0.47,0.728-0.637,1.177
		c-0.168,0.451-0.303,0.921-0.405,1.409c-0.103,0.489-0.174,0.979-0.212,1.467c-0.039,0.489-0.058,0.939-0.058,1.351v10.77H53.64
		V50.814c0-1.441-0.303-2.573-0.907-3.396c-0.605-0.823-1.731-1.235-3.377-1.235c-0.849,0-1.667,0.187-2.451,0.56
		c-0.785,0.373-1.473,0.945-2.065,1.718c-0.257,0.335-0.47,0.728-0.637,1.177c-0.167,0.451-0.303,0.921-0.405,1.409
		c-0.103,0.489-0.174,0.979-0.212,1.467c-0.039,0.489-0.058,0.939-0.058,1.351V64.632z"/>
	<path d="M75.1,55.176c0,1.081,0.141,2.103,0.425,3.068c0.283,0.965,0.701,1.802,1.254,2.509c0.553,0.708,1.254,1.272,2.104,1.698
		c0.85,0.425,1.827,0.637,2.933,0.637c1.518,0,2.817-0.398,3.898-1.195c1.081-0.799,1.801-1.931,2.161-3.396h2.586
		c-0.283,0.951-0.656,1.833-1.119,2.645c-0.463,0.811-1.042,1.519-1.737,2.123c-0.695,0.604-1.519,1.073-2.47,1.408
		c-0.952,0.334-2.059,0.501-3.319,0.501c-1.596,0-2.972-0.271-4.13-0.812c-1.158-0.539-2.11-1.278-2.856-2.219
		c-0.747-0.938-1.3-2.045-1.66-3.318c-0.361-1.273-0.541-2.645-0.541-4.11c0-1.467,0.212-2.844,0.637-4.13
		c0.425-1.287,1.029-2.413,1.814-3.378c0.785-0.965,1.743-1.724,2.875-2.276c1.132-0.554,2.418-0.83,3.86-0.83
		c2.753,0,4.915,0.945,6.484,2.837c1.569,1.891,2.341,4.638,2.316,8.24L75.1,55.176L75.1,55.176z M88.146,53.246
		c0-0.978-0.135-1.897-0.405-2.76c-0.271-0.862-0.669-1.608-1.197-2.239c-0.528-0.63-1.19-1.132-1.988-1.505
		c-0.798-0.373-1.711-0.56-2.74-0.56c-1.029,0-1.937,0.193-2.721,0.579c-0.785,0.386-1.454,0.9-2.007,1.544
		c-0.554,0.644-0.998,1.39-1.332,2.238c-0.335,0.85-0.554,1.75-0.656,2.702L88.146,53.246L88.146,53.246z"/>
	<path d="M102.156,64.709c-0.284,0.053-0.656,0.143-1.12,0.271c-0.463,0.127-0.978,0.191-1.543,0.191
		c-1.158,0-2.04-0.289-2.644-0.867c-0.605-0.58-0.907-1.615-0.907-3.107V46.568h-2.817v-1.93h2.817V39.08h2.316v5.558h3.744v1.93
		h-3.744V60.27c0,0.489,0.013,0.914,0.039,1.273c0.025,0.359,0.103,0.656,0.231,0.889c0.128,0.23,0.328,0.398,0.599,0.502
		c0.27,0.104,0.649,0.153,1.138,0.153c0.309,0,0.624-0.024,0.946-0.077c0.321-0.051,0.637-0.115,0.946-0.193v1.893H102.156z"/>
	<path d="M115.047,52.976c0.438-0.051,0.958-0.128,1.563-0.231c0.604-0.103,1.1-0.244,1.486-0.425
		c0.386-0.18,0.624-0.482,0.714-0.907c0.09-0.424,0.135-0.816,0.135-1.177c0-1.184-0.38-2.155-1.139-2.914
		c-0.759-0.759-2.04-1.139-3.84-1.139c-0.798,0-1.531,0.071-2.2,0.212c-0.669,0.142-1.254,0.387-1.756,0.733
		c-0.502,0.348-0.914,0.811-1.235,1.39c-0.321,0.579-0.534,1.307-0.637,2.181h-2.354c0.077-1.183,0.348-2.193,0.811-3.029
		c0.463-0.836,1.062-1.519,1.795-2.046s1.583-0.913,2.547-1.158c0.965-0.244,1.988-0.366,3.068-0.366
		c1.003,0,1.949,0.109,2.837,0.328c0.888,0.219,1.66,0.566,2.316,1.042c0.656,0.477,1.17,1.113,1.544,1.91
		c0.373,0.798,0.56,1.775,0.56,2.934v10.883c0,0.902,0.16,1.475,0.482,1.719c0.321,0.245,0.971,0.188,1.949-0.174v1.814
		c-0.182,0.051-0.443,0.127-0.792,0.23c-0.347,0.104-0.688,0.154-1.023,0.154c-0.36,0-0.708-0.039-1.042-0.115
		c-0.386-0.053-0.695-0.174-0.926-0.367c-0.231-0.191-0.418-0.425-0.56-0.693c-0.142-0.271-0.238-0.566-0.29-0.889
		c-0.052-0.32-0.077-0.662-0.077-1.023c-0.978,1.082-2.098,1.905-3.358,2.472c-1.261,0.565-2.625,0.849-4.091,0.849
		c-0.875,0-1.717-0.115-2.528-0.347s-1.525-0.593-2.142-1.081c-0.618-0.488-1.107-1.087-1.467-1.795
		c-0.361-0.707-0.541-1.551-0.541-2.528c0-3.396,2.329-5.403,6.986-6.021L115.047,52.976z M118.946,54.134
		c-0.978,0.412-1.968,0.682-2.972,0.811c-1.003,0.129-2.007,0.231-3.01,0.309c-1.775,0.129-3.159,0.527-4.149,1.196
		c-0.991,0.67-1.486,1.687-1.486,3.049c0,0.618,0.122,1.151,0.367,1.603c0.244,0.451,0.566,0.823,0.965,1.119
		c0.399,0.297,0.862,0.516,1.39,0.656c0.527,0.143,1.062,0.212,1.602,0.212c0.926,0,1.827-0.114,2.702-0.349
		c0.875-0.23,1.653-0.584,2.335-1.061c0.681-0.477,1.229-1.08,1.64-1.814c0.411-0.732,0.618-1.602,0.618-2.604v-3.128H118.946z"/>
</g>
<g enable-background="new    ">
	<path fill="#4187F2" d="M139.336,51.458c-0.102-0.766-0.359-1.457-0.773-2.072c-0.604-0.829-1.543-1.244-2.814-1.244
		c-1.813,0-3.055,0.898-3.723,2.695c-0.354,0.952-0.528,2.218-0.528,3.797c0,1.504,0.176,2.713,0.528,3.627
		c0.644,1.709,1.853,2.563,3.627,2.563c1.261,0,2.154-0.341,2.684-1.019c0.527-0.679,0.852-1.559,0.964-2.639h5.484
		c-0.127,1.633-0.718,3.18-1.772,4.637c-1.687,2.35-4.183,3.523-7.49,3.523s-5.74-0.979-7.301-2.939
		c-1.56-1.961-2.34-4.502-2.34-7.624c0-3.523,0.861-6.266,2.585-8.226s4.101-2.94,7.132-2.94c2.577,0,4.688,0.578,6.327,1.733
		c1.642,1.156,2.613,3.198,2.916,6.125L139.336,51.458L139.336,51.458z"/>
	<path fill="#4187F2" d="M153.867,44.09v12.383c0,1.168,0.137,2.047,0.412,2.639c0.486,1.043,1.443,1.563,2.869,1.563
		c1.824,0,3.074-0.74,3.75-2.224c0.35-0.804,0.524-1.865,0.524-3.185V44.09h5.447v20.542h-5.222V61.73
		c-0.051,0.063-0.176,0.252-0.375,0.564c-0.2,0.314-0.438,0.592-0.715,0.829c-0.84,0.754-1.65,1.271-2.434,1.546
		s-1.701,0.414-2.754,0.414c-3.031,0-5.074-1.093-6.127-3.279c-0.588-1.205-0.883-2.982-0.883-5.332V44.09H153.867z"/>
	<path fill="#4187F2" d="M189.631,46.559c1.536,1.947,2.305,4.46,2.305,7.538c0,3.191-0.758,5.836-2.272,7.934
		c-1.515,2.1-3.631,3.148-6.347,3.148c-1.705,0-3.074-0.341-4.11-1.019c-0.618-0.401-1.287-1.104-2.009-2.111v2.582h-5.295V36.891
		h5.371v9.875c0.683-0.954,1.436-1.684,2.258-2.186c0.974-0.629,2.213-0.942,3.718-0.942
		C185.967,43.638,188.094,44.611,189.631,46.559z M185.141,59.072c0.773-1.118,1.16-2.588,1.16-4.41c0-1.457-0.189-2.663-0.57-3.618
		c-0.723-1.81-2.053-2.714-3.989-2.714c-1.964,0-3.312,0.886-4.048,2.657c-0.381,0.942-0.569,2.161-0.569,3.656
		c0,1.759,0.394,3.216,1.178,4.373c0.785,1.155,1.982,1.733,3.593,1.733C183.285,60.75,184.369,60.189,185.141,59.072z"/>
	<path fill="#4187F2" d="M209.053,44.506c1.434,0.642,2.616,1.655,3.551,3.039c0.84,1.221,1.387,2.636,1.637,4.246
		c0.145,0.944,0.203,2.304,0.177,4.077h-14.961c0.083,2.062,0.799,3.506,2.147,4.335c0.82,0.516,1.808,0.771,2.961,0.771
		c1.225,0,2.219-0.313,2.982-0.941c0.417-0.34,0.785-0.811,1.105-1.413h5.482c-0.145,1.219-0.808,2.456-1.99,3.713
		c-1.84,1.997-4.416,2.996-7.729,2.996c-2.733,0-5.146-0.843-7.235-2.526c-2.089-1.685-3.135-4.428-3.135-8.226
		c0-3.558,0.943-6.287,2.83-8.186c1.887-1.898,4.335-2.849,7.346-2.849C206.01,43.543,207.619,43.864,209.053,44.506z
		 M201.018,49.146c-0.76,0.782-1.235,1.843-1.432,3.18h9.254c-0.098-1.426-0.574-2.508-1.431-3.246
		c-0.856-0.738-1.918-1.107-3.187-1.107C202.846,47.972,201.775,48.363,201.018,49.146z"/>
</g>
</svg>
