<svg viewBox="0 0 243.82 36" xmlns="http://www.w3.org/2000/svg"><g fill="#58586b"><path d="m0 27.73 1.94-2.3a13.19 13.19 0 0 0 9.51 3.92c3.72 0 6.18-2 6.18-4.71v-.08c0-2.58-1.39-4-7.21-5.27-6.38-1.38-9.31-3.44-9.31-8v-.08c0-4.35 3.84-7.56 9.11-7.56a14.44 14.44 0 0 1 9.78 3.4l-1.86 2.42a12.17 12.17 0 0 0 -8-3c-3.6 0-5.9 2-5.9 4.47v.06c0 2.62 1.43 4.08 7.52 5.39s9 3.61 9 7.85v.07c0 4.75-4 7.85-9.47 7.85a16.23 16.23 0 0 1 -11.29-4.43z"/><path d="m24.5 11.83h3v3.36c1.31-2 3.09-3.78 6.44-3.78a6.79 6.79 0 0 1 6.41 4 7.94 7.94 0 0 1 7-4c4.59 0 7.41 3.09 7.41 8v12.37h-3v-11.65c0-3.86-1.94-6-5.18-6-3 0-5.51 2.24-5.51 6.17v11.5h-2.91v-11.75c0-3.74-2-5.94-5.13-5.94s-5.56 2.62-5.56 6.29v11.38h-3z"/><path d="m59.68 26v-.07c0-4.29 3.48-6.52 8.53-6.52a20.89 20.89 0 0 1 6.09.84v-.61c0-3.55-2.16-5.4-5.9-5.4a13.83 13.83 0 0 0 -6.05 1.42l-.89-2.43a16.39 16.39 0 0 1 7.25-1.69 8.9 8.9 0 0 1 6.45 2.19 8 8 0 0 1 2.08 5.87v12.18h-2.94v-3a8.74 8.74 0 0 1 -7.17 3.4c-3.74.03-7.45-2.1-7.45-6.18zm14.67-1.54v-1.86a20.36 20.36 0 0 0 -5.83-.85c-3.71 0-5.83 1.62-5.83 4v.08c0 2.51 2.32 4 5 4 3.69-.02 6.66-2.22 6.66-5.38z"/><path d="m82.87 11.83h3v5.17c1.46-3.32 4.36-5.71 8.14-5.56v3.21h-.23c-4.36 0-7.91 3.13-7.91 9.14v8h-3z"/><path d="m99.54 26.5v-12h-2.78v-2.67h2.78v-6h3v6h6.32v2.63h-6.32v11.65c0 2.43 1.35 3.32 3.35 3.32a6.28 6.28 0 0 0 2.9-.7v2.55a7.47 7.47 0 0 1 -3.59.85c-3.2 0-5.66-1.59-5.66-5.63z"/><path d="m109.92 4h3.48l9.88 23.9 9.9-23.9h3.37l-11.93 28h-2.78z"/><path d="m134.76 26v-.07c0-4.29 3.48-6.52 8.53-6.52a21 21 0 0 1 6.1.84v-.61c0-3.55-2.17-5.4-5.91-5.4a13.87 13.87 0 0 0 -6.06 1.42l-.88-2.43a16.39 16.39 0 0 1 7.25-1.69 8.89 8.89 0 0 1 6.44 2.19 7.91 7.91 0 0 1 2.09 5.87v12.18h-2.93v-3a8.77 8.77 0 0 1 -7.18 3.4c-3.74.03-7.45-2.1-7.45-6.18zm14.66-1.54v-1.86a20.23 20.23 0 0 0 -5.82-.85c-3.71 0-5.83 1.62-5.83 4v.08c0 2.51 2.32 4 5 4 3.68-.02 6.65-2.22 6.65-5.38z"/><path d="m158 24.22v-12.39h3v11.65c0 3.71 2 6 5.51 6a5.88 5.88 0 0 0 6-6.25v-11.4h2.93v20h-2.93v-3.52a7.61 7.61 0 0 1 -6.83 3.9c-4.85 0-7.68-3.21-7.68-7.99z"/><path d="m181.05 3.62h3v28.16h-3z"/><path d="m190.86 26.5v-12h-2.78v-2.67h2.78v-6h3v6h6.33v2.63h-6.33v11.65c0 2.43 1.35 3.32 3.35 3.32a6.28 6.28 0 0 0 2.9-.7v2.55a7.47 7.47 0 0 1 -3.59.85c-3.23 0-5.66-1.59-5.66-5.63z"/></g><path d="m243.82 8-8-8h-21a3 3 0 0 0 -3 3v30a3 3 0 0 0 3 3h26a3 3 0 0 0 3-3z" fill="#00bf99"/><path d="m232.82 16a5 5 0 1 1 -5-5 5 5 0 0 1 5 5z" fill="#fff"/><path d="m232.32 27h-9l4.5-8.5z" fill="#fff"/><path d="m243.82 8h-8v-8z" fill="#00967d"/></svg>