<?xml version="1.0" encoding="utf-8"?>
<svg version="1.1" id="Layer_1" xmlns="http://www.w3.org/2000/svg" xmlns:xlink="http://www.w3.org/1999/xlink" x="0px" y="0px"
	 viewBox="0 0 256 56" style="enable-background:new 0 0 256 56;" xml:space="preserve">
<style type="text/css">
	.st0{fill:#0066FF;}
	.st1{fill:#0062FF;}
	.st2{fill:#003A7F;}
	.st3{fill:#80B4FF;}
	.st4{fill:#CBC0FF;}
	.st5{fill:#33CC99;}
	.st6{fill:#7549EA;}
	.st7{fill:#FF4545;}
	.st8{fill:#FF9933;}
</style>
<path class="st0" d="M72.3,15c-0.5-0.1-1.3-0.1-2-0.1c-4.5,0-7.7,3.5-7.8,8.8v16.8h-5.4V10.7h3.7c0.5,1.1,1,2.5,1.3,4.1
	c2-3.2,5.4-4.8,8.8-4.8c0.7,0,1.2,0.1,1.6,0.1L72.3,15z"/>
<path class="st0" d="M88.7,40.5h-5.4V15.3c-2.1-0.2-3.8-0.5-5.4-1.1v-3.5h10.8V40.5z"/>
<path class="st0" d="M116,23.8c0-5.9-2.6-9.1-7.1-9.1c-4.7,0-7.6,4-7.6,9.1v16.6h-5.4V10.7h3.7c0.5,1.1,1,2.6,1.3,4.2
	c2.2-3.2,5.5-5,9.3-5c7.5,0,11.4,5.6,11.4,13.1v17.5H116V23.8z"/>
<path class="st0" d="M136.6,36.4h5.5c8.1,0,12.1,4,12.1,9.5c0,5.4-4.1,9.6-12.1,9.6h-5.5c-8.1,0-12.1-4-12.1-9.5
	C124.6,40.6,128.7,36.4,136.6,36.4 M139.7,9.9c4.9,0,9.6,0.3,14.7,0.9v3.6h-7.5c1.7,1.6,3,4,3,6.9c0,6.4-5.1,11.5-11.8,11.5
	c-7,0-11.7-4.7-11.7-11.4C126.4,15.2,130.8,9.9,139.7,9.9 M136.9,40.9c-4.6,0-7.2,1.9-7.2,5c0,2.9,2.4,5.1,7.2,5.1h5
	c4.6,0,7.2-1.9,7.2-5c0-2.9-2.4-5-7.2-5H136.9z M138.1,28.3c4,0,7-2.9,7-6.9c0-4-3-7-7-7c-4,0-7,3-7,7
	C131.2,25.3,134.2,28.3,138.1,28.3"/>
<path class="st0" d="M159.2-0.1c3.3-0.1,7.5-0.2,11.1-0.2c10.7,0,17.6,5.8,17.6,18.8v3.2c0,12-6.5,18.9-17.5,18.9
	c-4.4,0-8.2,0-11.2-0.2V-0.1z M182.2,18.7c0-9.1-4.5-13.9-11.8-13.9h-5.5v30.7h5.5c7.3,0,11.8-4.8,11.8-13.8V18.7z"/>
<path class="st0" d="M199.2,12.4c-0.7-1-1.1-2.5-1.4-3.6h-0.1c0.1,1.1,0.2,2.5,0.2,3.7v28h-5.3V-0.1h5.5l16.3,28
	c0.6,1,1.1,2.4,1.4,3.5h0.1c-0.1-1.2-0.2-2.6-0.2-3.8V-0.1h5.3v40.6h-5.5L199.2,12.4z"/>
<path class="st0" d="M237.9-0.1h5.8l11.2,32.9c1,2.9,1.1,4.7,1.1,7.6h-4.4l-2.9-9.1h-15.7l-2.9,9.1h-4.4c0-2.6,0.1-4.6,1.1-7.6
	L237.9-0.1z M241.5,9.5c-0.4-1.1-0.5-2.1-0.7-3.2h-0.1c-0.2,1.1-0.4,2.2-0.8,3.2l-5.7,17.2h12.9L241.5,9.5z"/>
<path class="st1" d="M8.7,2.8c0,1.6-1.3,2.9-2.9,2.9c-1.6,0-2.9-1.3-2.9-2.9c0-1.6,1.3-2.9,2.9-2.9C7.4-0.1,8.7,1.2,8.7,2.8"/>
<path class="st2" d="M8.7,2.8c0,1.6-1.3,2.9-2.9,2.9c-1.6,0-2.9-1.3-2.9-2.9c0-1.6,1.3-2.9,2.9-2.9C7.4-0.1,8.7,1.2,8.7,2.8"/>
<path class="st3" d="M37.5,2.8c0,1.6-1.3,2.9-2.9,2.9c-1.6,0-2.9-1.3-2.9-2.9c0-1.6,1.3-2.9,2.9-2.9C36.2-0.1,37.5,1.2,37.5,2.8"/>
<path class="st4" d="M34.5,14.4c0,1.6-1.3,2.9-2.9,2.9c-1.6,0-2.9-1.3-2.9-2.9c0-1.6,1.3-2.9,2.9-2.9C33.2,11.5,34.5,12.8,34.5,14.4
	"/>
<path class="st5" d="M43.2,14.4c0,1.6-1.3,2.9-2.9,2.9c-1.6,0-2.9-1.3-2.9-2.9c0-1.6,1.3-2.9,2.9-2.9C41.9,11.5,43.2,12.8,43.2,14.4
	"/>
<path class="st0" d="M28.9,2.8c0,1.6-1.3,2.9-2.9,2.9H14.4c-1.6,0-2.9-1.3-2.9-2.9c0-1.6,1.3-2.9,2.9-2.9H26
	C27.6-0.1,28.9,1.2,28.9,2.8"/>
<path class="st6" d="M25.9,14.4c0,1.6-1.3,2.9-2.9,2.9H11.5c-1.6,0-2.9-1.3-2.9-2.9c0-1.6,1.3-2.9,2.9-2.9H23
	C24.6,11.5,25.9,12.8,25.9,14.4"/>
<path class="st7" d="M25.9,25.9c0,1.6-1.3,2.9-2.9,2.9c-1.6,0-2.9-1.3-2.9-2.9c0-1.6,1.3-2.9,2.9-2.9C24.6,23,25.9,24.3,25.9,25.9"
	/>
<path class="st2" d="M11.6,37.5c0,1.6-1.3,2.9-2.9,2.9c-1.6,0-2.9-1.3-2.9-2.9c0-1.6,1.3-2.9,2.9-2.9C10.3,34.6,11.6,35.9,11.6,37.5
	"/>
<path class="st8" d="M17.2,25.9c0,1.6-1.3,2.9-2.9,2.9H2.9c-1.6,0-2.9-1.3-2.9-2.9C0,24.3,1.3,23,2.9,23h11.5
	C15.9,23,17.2,24.3,17.2,25.9"/>
<path class="st1" d="M31.7,37.6c0,1.6-1.3,2.9-2.9,2.9H17.3c-1.6,0-2.9-1.3-2.9-2.9c0-1.6,1.3-2.9,2.9-2.9h11.4
	C30.4,34.7,31.7,36,31.7,37.6"/>
</svg>
